<svg width="166" height="72" viewBox="0 0 166 72" fill="none" xmlns="http://www.w3.org/2000/svg">
<path d="M79.0001 1.6111V3.29319L80.811 4.97527V0.421586C80.811 0.132323 80.5032 -0.0720506 80.2094 0.0239965C79.5049 0.254386 79.0001 0.877936 79.0001 1.6111Z" fill="#E9E9E9"/>
<path d="M82.6219 0.421688V4.97538L84.4328 3.29329V1.6112C84.4328 0.877982 83.9279 0.254433 83.2234 0.0240989C82.9296 -0.0718922 82.6219 0.132425 82.6219 0.421688V0.421688Z" fill="#E9E9E9"/>
<path d="M87.2699 20.2262H90.8917V26.1135C90.8917 27.0426 90.081 27.7956 89.0808 27.7956H87.2699V20.2262Z" fill="white"/>
<path d="M84.4329 12.8694L80.811 18.2885C79.7558 17.942 79.0001 17.0073 79.0001 15.9089V12.8694H84.4329Z" fill="white"/>
<path d="M83.5275 5.02209L80.8111 15.7826C79.7058 15.1905 79.0002 14.0871 79.0002 12.8693V5.02209H83.5275Z" fill="white"/>
<path d="M84.4329 5.02209V8.33939C84.4329 9.26847 85.2436 10.0215 86.2438 10.0215H88.9521C92.2474 10.0215 95.1273 12.0871 95.9604 15.0487L96.5566 17.1658L86.3645 20.9551V18.7992C86.3645 18.077 85.8683 17.4356 85.1319 17.2052L82.6219 16.4191V18.312C82.6219 18.7633 83.0161 19.1295 83.5021 19.1295C83.9892 19.1295 84.4087 19.4777 84.4317 19.9296C84.4564 20.4129 84.0417 20.8116 83.5274 20.8116C82.0274 20.8116 80.811 19.6818 80.811 18.2884V5.02209H84.4329Z" fill="white"/>
<path d="M80.811 26.1134H82.6219L80.811 27.7955H79.5304C79.219 27.7955 78.9989 27.5096 79.1024 27.2368C79.3503 26.5824 80.0216 26.1134 80.811 26.1134Z" fill="white"/>
<path d="M82.622 26.1136H86.3645V20.9552C86.3645 18.1682 88.7969 15.9089 91.7973 15.9089H94.8045C95.6284 15.9089 96.3484 16.4255 96.5566 17.1659L98.3659 23.5999C98.783 25.0807 100.223 26.1135 101.871 26.1135H108.095C108.595 26.1135 109 26.4901 109 26.9546C109 27.4191 108.595 27.7956 108.095 27.7956H101.027C98.9623 27.7956 97.0765 26.709 96.1596 24.991L94.5135 21.9083H89.0809V26.1135C89.0809 27.0425 88.2702 27.7956 87.27 27.7956H80.811C80.811 26.8666 81.6217 26.1136 82.622 26.1136Z" fill="#FBFBFB"/>
<path d="M80.811 3.29309L82.6219 6.09079L80.811 8.88849C80.6442 8.7666 80.5046 8.61106 80.4061 8.42816L79.3825 6.52657C79.131 6.05945 79.0002 5.54434 79.0002 5.02205V3.29309H80.811Z" fill="white"/>
<path d="M84.4329 3.29309V5.02205C84.4329 5.54434 84.3019 6.05939 84.0505 6.52657L83.0269 8.42816C82.7788 8.88922 82.2715 9.18045 81.7165 9.18045C81.3818 9.18045 81.0647 9.07386 80.8111 8.88855V3.29309H84.4329Z" fill="white"/>
<path d="M34.761 52.5059V53.4519H18.569V52.5059H23.299C22.1257 51.8166 21.2017 50.8852 20.527 49.7119C19.867 48.5239 19.537 47.1819 19.537 45.6859C19.537 43.4272 20.3143 41.5352 21.869 40.0099C23.4383 38.4846 25.3523 37.7219 27.611 37.7219C30.1337 37.7219 32.2457 38.6826 33.947 40.6039L31.813 43.0239C30.7277 41.6746 29.3783 40.9999 27.765 40.9999C26.4743 40.9999 25.367 41.4252 24.443 42.2759C23.5337 43.1119 23.079 44.2486 23.079 45.6859C23.079 47.1086 23.5117 48.2526 24.377 49.1179C25.2423 49.9832 26.291 50.4159 27.523 50.4159C29.2097 50.4159 30.5883 49.7486 31.659 48.4139L33.859 50.6799C33.2137 51.4279 32.4877 52.0366 31.681 52.5059H34.761ZM53.2948 52.5059V53.4519H47.5088L46.0788 50.1299H39.6328L38.2028 53.4519H32.4168V52.5059H34.9468L41.1948 38.0739H44.5168L50.7428 52.5059H53.2948ZM42.8668 42.6499L40.9308 47.1159H44.7808L42.8668 42.6499ZM52.9454 52.5059V38.0739H56.1574L63.7034 47.9739V38.0739H67.1354V52.5059H69.2694V53.4519H63.7034L56.3774 43.8159V53.4519H50.8114V52.5059H52.9454ZM84.5678 52.5059V53.4519H68.7938V52.5059H70.9278V38.0739H76.9118C77.9531 38.0739 78.8478 38.1986 79.5958 38.4479C80.3585 38.6972 80.9305 39.0346 81.3118 39.4599C82.0011 40.2519 82.3458 41.1466 82.3458 42.1439C82.3458 43.3466 81.9571 44.2412 81.1798 44.8279C80.9158 45.0332 80.7325 45.1652 80.6298 45.2239C80.5271 45.2679 80.3438 45.3486 80.0798 45.4659C81.0331 45.6712 81.7885 46.1039 82.3458 46.7639C82.9178 47.4092 83.2038 48.2159 83.2038 49.1839C83.2038 50.6359 82.6318 51.7432 81.4878 52.5059H84.5678ZM74.3598 50.5479H76.7138C77.6965 50.5479 78.4298 50.4306 78.9138 50.1959C79.4125 49.9466 79.6618 49.4699 79.6618 48.7659C79.6618 48.0472 79.3978 47.5779 78.8698 47.3579C78.3565 47.1232 77.5278 47.0059 76.3838 47.0059H74.3598V50.5479ZM74.3598 44.2999H75.9878C76.9411 44.2999 77.6451 44.1972 78.0998 43.9919C78.5691 43.7866 78.8038 43.3466 78.8038 42.6719C78.8038 41.9826 78.5911 41.5279 78.1658 41.3079C77.7405 41.0879 77.0218 40.9779 76.0098 40.9779H74.3598V44.2999ZM86.461 52.5059V38.0739H97.549V41.1319H89.893V44.2999H96.779V47.2259H89.893V50.4159H97.791V52.5059H99.925V53.4519H84.327V52.5059H86.461ZM100.856 52.5059V38.0739H106.686C109.076 38.0739 110.778 38.4772 111.79 39.2839C112.816 40.0906 113.33 41.3886 113.33 43.1779C113.33 45.6419 112.354 47.2332 110.404 47.9519L113.616 52.5059H115.684V53.4519H110.074L106.664 48.5459H104.288V53.4519H98.7215V52.5059H100.856ZM106.796 45.5759C107.969 45.5759 108.768 45.3852 109.194 45.0039C109.619 44.6226 109.832 44.0212 109.832 43.1999C109.832 42.3639 109.612 41.7919 109.172 41.4839C108.732 41.1759 107.962 41.0219 106.862 41.0219H104.288V45.5759H106.796ZM116.84 52.5059V38.0739H122.67C125.061 38.0739 126.762 38.4772 127.774 39.2839C128.801 40.0906 129.314 41.3886 129.314 43.1779C129.314 45.6419 128.339 47.2332 126.388 47.9519L129.6 52.5059H131.668V53.4519H126.058L122.648 48.5459H120.272V53.4519H114.706V52.5059H116.84ZM122.78 45.5759C123.953 45.5759 124.753 45.3852 125.178 45.0039C125.603 44.6226 125.816 44.0212 125.816 43.1999C125.816 42.3639 125.596 41.7919 125.156 41.4839C124.716 41.1759 123.946 41.0219 122.846 41.0219H120.272V45.5759H122.78ZM149.566 52.5059V53.4519H143.78L142.35 50.1299H135.904L134.474 53.4519H128.688V52.5059H131.218L137.466 38.0739H140.788L147.014 52.5059H149.566ZM139.138 42.6499L137.202 47.1159H141.052L139.138 42.6499Z" fill="#8AFF42"/>
<path d="M34.5174 52.2623V53.2083H18.3254V52.2623H23.0554C21.882 51.5729 20.958 50.6416 20.2834 49.4683C19.6234 48.2803 19.2934 46.9383 19.2934 45.4423C19.2934 43.1836 20.0707 41.2916 21.6254 39.7663C23.1947 38.2409 25.1087 37.4783 27.3674 37.4783C29.89 37.4783 32.002 38.4389 33.7034 40.3603L31.5694 42.7803C30.484 41.4309 29.1347 40.7563 27.5214 40.7563C26.2307 40.7563 25.1234 41.1816 24.1994 42.0323C23.29 42.8683 22.8354 44.0049 22.8354 45.4423C22.8354 46.8649 23.268 48.0089 24.1334 48.8743C24.9987 49.7396 26.0474 50.1723 27.2794 50.1723C28.966 50.1723 30.3447 49.5049 31.4154 48.1703L33.6154 50.4363C32.97 51.1843 32.244 51.7929 31.4374 52.2623H34.5174ZM53.0512 52.2623V53.2083H47.2652L45.8352 49.8863H39.3892L37.9592 53.2083H32.1732V52.2623H34.7032L40.9512 37.8303H44.2732L50.4992 52.2623H53.0512ZM42.6232 42.4063L40.6872 46.8723H44.5372L42.6232 42.4063ZM52.7017 52.2623V37.8303H55.9137L63.4597 47.7303V37.8303H66.8917V52.2623H69.0257V53.2083H63.4597L56.1337 43.5723V53.2083H50.5677V52.2623H52.7017ZM84.3242 52.2623V53.2083H68.5502V52.2623H70.6842V37.8303H76.6682C77.7095 37.8303 78.6042 37.9549 79.3522 38.2043C80.1148 38.4536 80.6868 38.7909 81.0682 39.2163C81.7575 40.0083 82.1022 40.9029 82.1022 41.9003C82.1022 43.1029 81.7135 43.9976 80.9362 44.5843C80.6722 44.7896 80.4888 44.9216 80.3862 44.9803C80.2835 45.0243 80.1002 45.1049 79.8362 45.2223C80.7895 45.4276 81.5448 45.8603 82.1022 46.5203C82.6742 47.1656 82.9602 47.9723 82.9602 48.9403C82.9602 50.3923 82.3882 51.4996 81.2442 52.2623H84.3242ZM74.1162 50.3043H76.4702C77.4528 50.3043 78.1862 50.1869 78.6702 49.9523C79.1688 49.7029 79.4182 49.2263 79.4182 48.5223C79.4182 47.8036 79.1542 47.3343 78.6262 47.1143C78.1128 46.8796 77.2842 46.7623 76.1402 46.7623H74.1162V50.3043ZM74.1162 44.0563H75.7442C76.6975 44.0563 77.4015 43.9536 77.8562 43.7483C78.3255 43.5429 78.5602 43.1029 78.5602 42.4283C78.5602 41.7389 78.3475 41.2843 77.9222 41.0643C77.4968 40.8443 76.7782 40.7343 75.7662 40.7343H74.1162V44.0563ZM86.2174 52.2623V37.8303H97.3054V40.8883H89.6494V44.0563H96.5354V46.9823H89.6494V50.1723H97.5474V52.2623H99.6814V53.2083H84.0834V52.2623H86.2174ZM100.612 52.2623V37.8303H106.442C108.833 37.8303 110.534 38.2336 111.546 39.0403C112.573 39.8469 113.086 41.1449 113.086 42.9343C113.086 45.3983 112.111 46.9896 110.16 47.7083L113.372 52.2623H115.44V53.2083H109.83L106.42 48.3023H104.044V53.2083H98.4779V52.2623H100.612ZM106.552 45.3323C107.725 45.3323 108.525 45.1416 108.95 44.7603C109.375 44.3789 109.588 43.7776 109.588 42.9563C109.588 42.1203 109.368 41.5483 108.928 41.2403C108.488 40.9323 107.718 40.7783 106.618 40.7783H104.044V45.3323H106.552ZM116.596 52.2623V37.8303H122.426C124.817 37.8303 126.518 38.2336 127.53 39.0403C128.557 39.8469 129.07 41.1449 129.07 42.9343C129.07 45.3983 128.095 46.9896 126.144 47.7083L129.356 52.2623H131.424V53.2083H125.814L122.404 48.3023H120.028V53.2083H114.462V52.2623H116.596ZM122.536 45.3323C123.71 45.3323 124.509 45.1416 124.934 44.7603C125.36 44.3789 125.572 43.7776 125.572 42.9563C125.572 42.1203 125.352 41.5483 124.912 41.2403C124.472 40.9323 123.702 40.7783 122.602 40.7783H120.028V45.3323H122.536ZM149.323 52.2623V53.2083H143.537L142.107 49.8863H135.661L134.231 53.2083H128.445V52.2623H130.975L137.223 37.8303H140.545L146.771 52.2623H149.323ZM138.895 42.4063L136.959 46.8723H140.809L138.895 42.4063Z" fill="white"/>
<path d="M41.1738 69.066C40.4111 69.066 39.7218 68.8973 39.1058 68.56C38.4971 68.2227 38.0168 67.757 37.6648 67.163C37.3201 66.5617 37.1478 65.8907 37.1478 65.15C37.1478 64.4093 37.3201 63.742 37.6648 63.148C38.0168 62.5467 38.5008 62.0773 39.1168 61.74C39.7328 61.4027 40.4221 61.234 41.1848 61.234C41.7568 61.234 42.2848 61.3293 42.7688 61.52C43.2528 61.7107 43.6634 61.9893 44.0008 62.356L43.4838 62.873C42.8824 62.2643 42.1234 61.96 41.2068 61.96C40.5981 61.96 40.0444 62.0993 39.5458 62.378C39.0471 62.6567 38.6548 63.038 38.3688 63.522C38.0901 64.006 37.9508 64.5487 37.9508 65.15C37.9508 65.7513 38.0901 66.294 38.3688 66.778C38.6548 67.262 39.0471 67.6433 39.5458 67.922C40.0444 68.2007 40.5981 68.34 41.2068 68.34C42.1308 68.34 42.8898 68.032 43.4838 67.416L44.0008 67.933C43.6634 68.2997 43.2491 68.582 42.7578 68.78C42.2738 68.9707 41.7458 69.066 41.1738 69.066ZM48.882 61.234C49.8794 61.234 50.664 61.5273 51.236 62.114C51.8154 62.6933 52.105 63.533 52.105 64.633V69H51.302V66.734H46.462V69H45.67V64.633C45.67 63.533 45.956 62.6933 46.528 62.114C47.1074 61.5273 47.892 61.234 48.882 61.234ZM51.302 66.03V64.556C51.302 63.698 51.0894 63.0527 50.664 62.62C50.2387 62.18 49.6447 61.96 48.882 61.96C48.1194 61.96 47.5254 62.18 47.1 62.62C46.6747 63.0527 46.462 63.698 46.462 64.556V66.03H51.302ZM59.8026 69L58.0426 66.525C57.8446 66.547 57.6393 66.558 57.4266 66.558H55.3586V69H54.5446V61.3H57.4266C58.4093 61.3 59.1793 61.5347 59.7366 62.004C60.294 62.4733 60.5726 63.1187 60.5726 63.94C60.5726 64.5413 60.4186 65.051 60.1106 65.469C59.81 65.8797 59.3773 66.1767 58.8126 66.36L60.6936 69H59.8026ZM57.4046 65.865C58.1673 65.865 58.7503 65.6963 59.1536 65.359C59.557 65.0217 59.7586 64.5487 59.7586 63.94C59.7586 63.3167 59.557 62.84 59.1536 62.51C58.7503 62.1727 58.1673 62.004 57.4046 62.004H55.3586V65.865H57.4046ZM65.6398 61.234C66.6372 61.234 67.4218 61.5273 67.9938 62.114C68.5732 62.6933 68.8628 63.533 68.8628 64.633V69H68.0598V66.734H63.2198V69H62.4278V64.633C62.4278 63.533 62.7138 62.6933 63.2858 62.114C63.8652 61.5273 64.6498 61.234 65.6398 61.234ZM68.0598 66.03V64.556C68.0598 63.698 67.8472 63.0527 67.4218 62.62C66.9965 62.18 66.4025 61.96 65.6398 61.96C64.8772 61.96 64.2832 62.18 63.8578 62.62C63.4325 63.0527 63.2198 63.698 63.2198 64.556V66.03H68.0598ZM77.4896 61.3L74.0796 69H73.2766L69.8666 61.3H70.7466L73.6946 67.988L76.6646 61.3H77.4896ZM81.6994 61.234C82.6967 61.234 83.4814 61.5273 84.0534 62.114C84.6327 62.6933 84.9224 63.533 84.9224 64.633V69H84.1194V66.734H79.2794V69H78.4874V64.633C78.4874 63.533 78.7734 62.6933 79.3454 62.114C79.9247 61.5273 80.7094 61.234 81.6994 61.234ZM84.1194 66.03V64.556C84.1194 63.698 83.9067 63.0527 83.4814 62.62C83.0561 62.18 82.4621 61.96 81.6994 61.96C80.9367 61.96 80.3427 62.18 79.9174 62.62C79.4921 63.0527 79.2794 63.698 79.2794 64.556V66.03H84.1194ZM90.75 61.234C91.674 61.234 92.3963 61.509 92.917 62.059C93.445 62.609 93.709 63.3937 93.709 64.413V69H92.895V64.435C92.895 63.621 92.6933 63.005 92.29 62.587C91.8867 62.169 91.322 61.96 90.596 61.96C89.8333 61.96 89.2393 62.1837 88.814 62.631C88.3887 63.071 88.176 63.7347 88.176 64.622V69H87.362V61.3H88.143V62.598C88.6343 61.6887 89.5033 61.234 90.75 61.234ZM101.91 61.3C102.893 61.3 103.663 61.5347 104.22 62.004C104.777 62.4733 105.056 63.1187 105.056 63.94C105.056 64.7613 104.777 65.4067 104.22 65.876C103.663 66.338 102.893 66.569 101.91 66.569H99.842V69H99.028V61.3H101.91ZM101.888 65.854C102.651 65.854 103.234 65.689 103.637 65.359C104.04 65.0217 104.242 64.5487 104.242 63.94C104.242 63.3167 104.04 62.84 103.637 62.51C103.234 62.1727 102.651 62.004 101.888 62.004H99.842V65.854H101.888ZM109.779 61.234C110.777 61.234 111.561 61.5273 112.133 62.114C112.713 62.6933 113.002 63.533 113.002 64.633V69H112.199V66.734H107.359V69H106.567V64.633C106.567 63.533 106.853 62.6933 107.425 62.114C108.005 61.5273 108.789 61.234 109.779 61.234ZM112.199 66.03V64.556C112.199 63.698 111.987 63.0527 111.561 62.62C111.136 62.18 110.542 61.96 109.779 61.96C109.017 61.96 108.423 62.18 107.997 62.62C107.572 63.0527 107.359 63.698 107.359 64.556V66.03H112.199ZM120.7 69L118.94 66.525C118.742 66.547 118.537 66.558 118.324 66.558H116.256V69H115.442V61.3H118.324C119.307 61.3 120.077 61.5347 120.634 62.004C121.191 62.4733 121.47 63.1187 121.47 63.94C121.47 64.5413 121.316 65.051 121.008 65.469C120.707 65.8797 120.275 66.1767 119.71 66.36L121.591 69H120.7ZM118.302 65.865C119.065 65.865 119.648 65.6963 120.051 65.359C120.454 65.0217 120.656 64.5487 120.656 63.94C120.656 63.3167 120.454 62.84 120.051 62.51C119.648 62.1727 119.065 62.004 118.302 62.004H116.256V65.865H118.302ZM125.778 65.381L124.205 66.976V69H123.391V61.3H124.205V65.953L128.726 61.3H129.661L126.328 64.787L129.892 69H128.924L125.778 65.381Z" fill="white"/>
<path d="M69.9081 2.79773L74.0529 10.5761H65.7632L69.9081 2.79773Z" fill="white"/>
<path d="M69.7883 7.17517L73.935 13.4499H65.6415L69.7883 7.17517Z" fill="white"/>
<ellipse cx="69.7883" cy="13.8684" rx="0.368328" ry="5.85641" fill="white"/>
<path d="M69.9103 2L74.057 8.27472H65.7635L69.9103 2Z" fill="white"/>
<path d="M64.5 14L80 28H58L64.5 14Z" fill="white"/>
<path d="M76.0227 17L88 28H71L76.0227 17Z" fill="white"/>
<path d="M65.2958 19.6119L73.8181 27.0567H61.7219L65.2958 19.6119Z" fill="#EFEFEF"/>
<path d="M77.4977 21.4733L84.0533 27.0569H74.7485L77.4977 21.4733Z" fill="#EFEFEF"/>
</svg>
